<?xml version="1.0" encoding="utf-8"?>
<!-- Generator: Adobe Illustrator 16.0.0, SVG Export Plug-In . SVG Version: 6.00 Build 0)  -->
<!DOCTYPE svg PUBLIC "-//W3C//DTD SVG 1.1//EN" "http://www.w3.org/Graphics/SVG/1.1/DTD/svg11.dtd">
<svg version="1.1" id="logo" xmlns="http://www.w3.org/2000/svg" xmlns:xlink="http://www.w3.org/1999/xlink" x="0px" y="0px"
	 width="235px" height="101px" viewBox="0 0 235 101" enable-background="new 0 0 235 101" xml:space="preserve">
<g>
	<path fill="#C52127" d="M50.768,1.146C15.287,2.098,0.396,8.434,0.396,50.961c0,42.525,14.891,48.863,50.371,49.813
		c36.211,0,47.286-8.908,49.788-45.199c0.103-1.492,0.059-8.482-0.078-10.309C97.829,9.879,86.616,1.146,50.768,1.146z"/>
	<linearGradient id="SVGID_1_" gradientUnits="userSpaceOnUse" x1="74.8818" y1="51.0527" x2="3.866" y2="51.0527">
		<stop  offset="0" style="stop-color:#F6E0D7"/>
		<stop  offset="1" style="stop-color:#F9ECE8"/>
	</linearGradient>
	<path fill="url(#SVGID_1_)" d="M72.44,43.609c-0.087-7.313-6.034-13.215-13.367-13.215c-2.608,0-5.033,0.758-7.091,2.049
		c-2.455-2.602-5.926-4.232-9.784-4.232c-7.438,0-13.467,6.029-13.467,13.467c0,0.652,0.062,1.287,0.151,1.916
		c-7.305,1.131-12.901,7.43-12.901,15.051c0,8.422,6.827,15.25,15.25,15.25h38.75c8.422,0,15.25-6.828,15.25-15.25
		C85.231,51.061,79.69,44.789,72.44,43.609z M52.874,60.316v0.029h-0.038h-0.374h-1.926v-4.322
		c-4.585-0.166-8.471,0.523-11.273,6.309c0.604-8.908,4.529-11.691,11.273-11.83V45.92h1.926h0.374h0.038v0.029l9.096,7.184
		L52.874,60.316z"/>
	<path fill="#C03D27" d="M235.65,58.088c0.03,0,0.057-0.016,0.085-0.018h-0.169C235.597,58.072,235.62,58.088,235.65,58.088z"/>
	<g>
		<g>
			<path fill="#C52127" d="M188.838,46.336c-3.967,0-6.613,1.438-7.531,3.852c-0.084,0.219-0.154,0.447-0.209,0.684
				c0.004,0.297,0.124,0.557,0.3,0.775c0.247,0.307,0.617,0.518,1.05,0.518c0.434,0,0.803-0.211,1.051-0.518
				c0.068-0.084,0.14-0.166,0.184-0.264c0.009-0.023,0.017-0.049,0.025-0.072c0.511-1.412,1.898-2.641,5.003-2.641
				c3.242,0,5.354,1.426,5.354,4.648v2.541h-6.293c-5.055,0-7.7,2.521-7.7,6.199c0,3.967,2.943,6.529,7.252,6.529
				c3.712,0,5.802-1.902,6.72-3.492h0.128l0.007,2.033c0,0.486,0.295,0.898,0.713,1.107c0.178,0.088,0.37,0.15,0.584,0.15
				s0.407-0.063,0.585-0.15c0.42-0.209,0.714-0.621,0.714-1.107V53.195C196.773,48.318,193.297,46.336,188.838,46.336z
				 M194.064,60.902c0,3.139-2.709,5.412-6.144,5.412c-2.773,0-5.056-1.508-5.056-4.318c0-2.252,1.45-3.926,4.948-3.926h6.251
				V60.902z"/>
			<path fill="#C52127" d="M168.757,46.336c-4.608,0-6.592,2.707-7.104,4.422h-0.149V37.379V37.16
				c-0.026-0.293-0.144-0.559-0.336-0.766c-0.248-0.266-0.599-0.438-0.997-0.438c-0.748,0-1.354,0.588-1.354,1.313v30.006
				c0,0.383,0.176,0.721,0.446,0.961c0.242,0.213,0.557,0.352,0.908,0.352c0.354,0,0.667-0.139,0.908-0.352
				c0.243-0.217,0.395-0.516,0.425-0.852v-0.219V55.84c0-3.904,2.219-7.23,6.549-7.23c3.499,0,5.567,2.23,5.567,5.783v12.773v0.219
				c0.03,0.336,0.181,0.635,0.425,0.852c0.241,0.213,0.556,0.352,0.908,0.352c0.352,0,0.667-0.139,0.908-0.352
				c0.271-0.24,0.446-0.578,0.446-0.961V53.65C176.308,48.814,173.088,46.336,168.757,46.336z"/>
			<path fill="#C52127" d="M213.822,46.684c-0.141-0.129-0.315-0.217-0.506-0.273c-0.181-0.018-0.374-0.025-0.582-0.035
				c-0.143-0.006-0.274-0.018-0.426-0.018c-4.097,0-5.845,2.375-6.358,3.986h-0.148V48.17v-0.219
				c-0.061-0.672-0.623-1.203-1.333-1.203c-0.748,0-1.355,0.588-1.355,1.313v19.215c0,0.383,0.178,0.721,0.448,0.961
				c0.24,0.213,0.556,0.352,0.907,0.352c0.354,0,0.668-0.139,0.908-0.352c0.243-0.217,0.395-0.516,0.425-0.852v-0.219V54.744
				c0-3.656,2.41-5.971,6.207-5.971c0.238,0,0.463,0.008,0.678,0.018c0.135,0.006,0.27,0.012,0.391,0.021
				c0.286-0.033,0.547-0.139,0.745-0.322c0.248-0.227,0.407-0.545,0.407-0.902S214.07,46.912,213.822,46.684z"/>
			<path fill="#C52127" d="M224.11,46.336c-5.225,0-8.896,3.574-8.896,9.627v3.121c0,5.846,3.371,9.504,9.152,9.504
				c3.65,0,6.007-1.492,7.259-3.146c0.116-0.154,0.223-0.309,0.32-0.465c0.062-0.15,0.1-0.309,0.1-0.479
				c0-0.725-0.607-1.313-1.355-1.313c-0.56,0-1.043,0.33-1.248,0.801c-0.131,0.211-0.201,0.291-0.228,0.324
				c-0.854,1.066-2.488,1.941-4.848,1.941c-4.139,0-6.464-2.852-6.464-7.045V58.07h13.663h0.169c0.708-0.045,1.271-0.6,1.271-1.295
				v-0.813C233.006,49.91,229.315,46.336,224.11,46.336z M217.903,55.695c0-4.34,2.475-7.066,6.207-7.066
				c3.733,0,6.187,2.727,6.187,7.066v0.311h-12.394V55.695z"/>
			<path fill="#C52127" d="M146.065,56.17c-3.008-0.619-5.653-1.219-5.653-3.885c0-2.457,2.219-3.779,5.098-3.779
				c2.679,0,4.186,1.125,4.837,2.344c0.022,0.041,0.048,0.08,0.066,0.123c0.221,0.408,0.65,0.697,1.161,0.697
				c0.729,0,1.323-0.574,1.323-1.281c0-0.146-0.039-0.281-0.086-0.412c-0.043-0.09-0.093-0.176-0.141-0.262
				c-1.057-1.949-3.447-3.379-7.075-3.379c-4.224,0-7.851,1.982-7.851,6.197c0,4.01,3.2,5.021,7.445,5.93
				c3.2,0.662,5.952,1.262,5.952,3.967c0,2.396-2.07,3.947-5.717,3.947c-2.962,0-4.507-1.012-5.176-2.34
				c-0.007-0.012-0.009-0.023-0.015-0.035c-0.209-0.463-0.684-0.787-1.239-0.787c-0.747,0-1.354,0.588-1.354,1.313
				c0,0.18,0.038,0.35,0.105,0.506c0.002,0.002,0.003,0.006,0.004,0.008c1.067,2.137,3.697,3.547,7.589,3.547
				c4.82,0,8.469-2.211,8.469-6.447C153.809,57.988,150.225,56.996,146.065,56.17z"/>
			<path fill="#C52127" d="M134.58,37.471c-0.154-0.057-0.319-0.09-0.493-0.09h-14.875c-0.749,0-1.355,0.588-1.355,1.313v27.98
				c0,0.318,0.132,0.6,0.323,0.83c0.253,0.301,0.623,0.506,1.057,0.506c0.433,0,0.801-0.205,1.054-0.506
				c0.165-0.195,0.268-0.432,0.297-0.695v-0.271V54.533h10.03c0,0,0.18-0.021,0.258-0.027c0.758-0.059,1.354-0.674,1.354-1.424
				c0-0.756-0.608-1.369-1.375-1.42h-0.201h-10.065V40.176h13.5v-0.002c0.174,0,0.339-0.033,0.493-0.088
				c0.553-0.197,0.949-0.707,0.949-1.309C135.529,38.174,135.133,37.666,134.58,37.471z"/>
		</g>
	</g>
</g>
</svg>
